<svg xmlns="http://www.w3.org/2000/svg" xmlns:xlink="http://www.w3.org/1999/xlink" width="150" zoomAndPan="magnify" viewBox="0 0 112.5 112.499997" height="150" preserveAspectRatio="xMidYMid meet" version="1.0"><defs><g/><clipPath id="b3826325e9"><path d="M 0 0 L 112.003906 0 L 112.003906 112.003906 L 0 112.003906 Z M 0 0 " clip-rule="nonzero"/></clipPath><clipPath id="09d009fa87"><path d="M 3.96875 6.4375 L 106.34375 6.4375 L 106.34375 108.8125 L 3.96875 108.8125 Z M 3.96875 6.4375 " clip-rule="nonzero"/></clipPath><clipPath id="8e8d265e9f"><path d="M 55.15625 6.4375 C 26.886719 6.4375 3.96875 29.355469 3.96875 57.625 C 3.96875 85.898438 26.886719 108.8125 55.15625 108.8125 C 83.425781 108.8125 106.34375 85.898438 106.34375 57.625 C 106.34375 29.355469 83.425781 6.4375 55.15625 6.4375 Z M 55.15625 6.4375 " clip-rule="nonzero"/></clipPath><clipPath id="a81c3c65f1"><path d="M 7.066406 9.535156 L 103.246094 9.535156 L 103.246094 105.71875 L 7.066406 105.71875 Z M 7.066406 9.535156 " clip-rule="nonzero"/></clipPath><clipPath id="2e68f03f71"><path d="M 55.15625 9.535156 C 28.59375 9.535156 7.066406 31.066406 7.066406 57.625 C 7.066406 84.1875 28.59375 105.71875 55.15625 105.71875 C 81.714844 105.71875 103.246094 84.1875 103.246094 57.625 C 103.246094 31.066406 81.714844 9.535156 55.15625 9.535156 Z M 55.15625 9.535156 " clip-rule="nonzero"/></clipPath><clipPath id="77cf7e5453"><path d="M 7.066406 9.535156 L 103.246094 9.535156 L 103.246094 105.714844 L 7.066406 105.714844 Z M 7.066406 9.535156 " clip-rule="nonzero"/></clipPath><clipPath id="9664da4c00"><path d="M 55.15625 9.535156 C 28.59375 9.535156 7.066406 31.066406 7.066406 57.625 C 7.066406 84.183594 28.59375 105.714844 55.15625 105.714844 C 81.714844 105.714844 103.246094 84.183594 103.246094 57.625 C 103.246094 31.066406 81.714844 9.535156 55.15625 9.535156 Z M 55.15625 9.535156 " clip-rule="nonzero"/></clipPath><clipPath id="38fae65c5f"><path d="M 0 0 L 112.003906 0 L 112.003906 112.003906 L 0 112.003906 Z M 0 0 " clip-rule="nonzero"/></clipPath><clipPath id="6cb9ccba62"><path d="M 86.167969 -4.453125 L 116.453125 25.835938 L 25.832031 116.457031 L -4.453125 86.167969 Z M 86.167969 -4.453125 " clip-rule="nonzero"/></clipPath><clipPath id="e1414ca5ca"><path d="M 86.167969 -4.453125 L 116.453125 25.835938 L 25.832031 116.453125 L -4.453125 86.167969 Z M 86.167969 -4.453125 " clip-rule="nonzero"/></clipPath></defs><g clip-path="url(#b3826325e9)"><path fill="#ffffff" d="M 0 0 L 112.003906 0 L 112.003906 112.003906 L 0 112.003906 Z M 0 0 " fill-opacity="1" fill-rule="nonzero"/><path fill="#000000" d="M 0 0 L 112.003906 0 L 112.003906 112.003906 L 0 112.003906 Z M 0 0 " fill-opacity="1" fill-rule="nonzero"/></g><g clip-path="url(#09d009fa87)"><g clip-path="url(#8e8d265e9f)"><path fill="#00d9c0" d="M 3.96875 6.4375 L 106.34375 6.4375 L 106.34375 108.8125 L 3.96875 108.8125 Z M 3.96875 6.4375 " fill-opacity="1" fill-rule="nonzero"/></g></g><g clip-path="url(#a81c3c65f1)"><g clip-path="url(#2e68f03f71)"><path fill="#000000" d="M 7.066406 9.535156 L 103.246094 9.535156 L 103.246094 105.71875 L 7.066406 105.71875 Z M 7.066406 9.535156 " fill-opacity="1" fill-rule="nonzero"/></g></g><g clip-path="url(#77cf7e5453)"><g clip-path="url(#9664da4c00)"><path stroke-linecap="butt" transform="matrix(0.241811, 0, 0, 0.241811, 7.064743, 9.535965)" fill="none" stroke-linejoin="miter" d="M 198.880714 -0.00334554 C 89.032441 -0.00334554 0.00687681 89.038373 0.00687681 198.870492 C 0.00687681 308.702611 89.032441 397.744329 198.880714 397.744329 C 308.712833 397.744329 397.754551 308.702611 397.754551 198.870492 C 397.754551 89.038373 308.712833 -0.00334554 198.880714 -0.00334554 Z M 198.880714 -0.00334554 " stroke="#000000" stroke-width="24.702995" stroke-opacity="1" stroke-miterlimit="4"/></g></g><g clip-path="url(#38fae65c5f)"><g clip-path="url(#6cb9ccba62)"><g clip-path="url(#e1414ca5ca)"><path fill="#000000" d="M 86.167969 -4.453125 L 116.453125 25.835938 L 25.832031 116.457031 L -4.453125 86.167969 Z M 86.167969 -4.453125 " fill-opacity="1" fill-rule="nonzero"/></g></g></g><g fill="#ff4365" fill-opacity="1"><g transform="translate(11.533829, 53.967951)"><g><path d="M 8.734375 0 L 7.46875 0 L 7.46875 -4.09375 L 2.59375 -4.09375 L 2.59375 0 L 1.34375 0 L 1.34375 -9.3125 L 2.59375 -9.3125 L 2.59375 -5.28125 L 7.46875 -5.28125 L 7.46875 -9.3125 L 8.734375 -9.3125 Z M 8.734375 0 "/></g></g></g><g fill="#ff4365" fill-opacity="1"><g transform="translate(31.922329, 53.967951)"><g><path d="M 7.40625 -9.3125 L 7.40625 -8.125 L 2.59375 -8.125 L 2.59375 -5.28125 L 6.890625 -5.28125 L 6.890625 -4.09375 L 2.59375 -4.09375 L 2.59375 -1.21875 L 7.578125 -1.21875 L 7.578125 0 L 1.34375 0 L 1.34375 -9.3125 Z M 7.40625 -9.3125 "/></g></g></g><g fill="#ff4365" fill-opacity="1"><g transform="translate(50.660232, 53.967951)"><g><path d="M 2.59375 -9.3125 L 2.59375 -1.21875 L 7.328125 -1.21875 L 7.328125 0 L 1.34375 0 L 1.34375 -9.3125 Z M 2.59375 -9.3125 "/></g></g></g><g fill="#ff4365" fill-opacity="1"><g transform="translate(68.99838, 53.967951)"><g><path d="M 10.609375 -9.609375 L 10.609375 0 L 9.375 0 L 9.375 -6.03125 L 5.9375 -1.171875 L 5.921875 -1.171875 L 2.546875 -5.859375 L 2.546875 0 L 1.34375 0 L 1.34375 -9.609375 L 1.359375 -9.609375 L 5.9375 -3.125 L 10.59375 -9.609375 Z M 10.609375 -9.609375 "/></g></g></g><g fill="#ff4365" fill-opacity="1"><g transform="translate(91.269593, 53.967951)"><g><path d="M 6.15625 -7.65625 C 5.820312 -7.832031 5.46875 -7.976562 5.09375 -8.09375 C 4.71875 -8.207031 4.359375 -8.265625 4.015625 -8.265625 C 3.515625 -8.265625 3.113281 -8.148438 2.8125 -7.921875 C 2.519531 -7.691406 2.375 -7.378906 2.375 -6.984375 C 2.375 -6.597656 2.546875 -6.28125 2.890625 -6.03125 C 3.242188 -5.789062 3.738281 -5.550781 4.375 -5.3125 C 4.863281 -5.132812 5.269531 -4.945312 5.59375 -4.75 C 5.925781 -4.550781 6.203125 -4.269531 6.421875 -3.90625 C 6.640625 -3.550781 6.75 -3.097656 6.75 -2.546875 C 6.75 -2.046875 6.625 -1.59375 6.375 -1.1875 C 6.125 -0.789062 5.769531 -0.472656 5.3125 -0.234375 C 4.851562 -0.00390625 4.316406 0.109375 3.703125 0.109375 C 3.117188 0.109375 2.5625 0.015625 2.03125 -0.171875 C 1.5 -0.359375 1.03125 -0.59375 0.625 -0.875 L 1.1875 -1.875 C 1.5 -1.632812 1.878906 -1.425781 2.328125 -1.25 C 2.773438 -1.082031 3.191406 -1 3.578125 -1 C 4.078125 -1 4.515625 -1.128906 4.890625 -1.390625 C 5.265625 -1.648438 5.453125 -2.035156 5.453125 -2.546875 C 5.453125 -2.972656 5.296875 -3.3125 4.984375 -3.5625 C 4.671875 -3.8125 4.226562 -4.050781 3.65625 -4.28125 C 3.132812 -4.476562 2.695312 -4.671875 2.34375 -4.859375 C 2 -5.046875 1.703125 -5.304688 1.453125 -5.640625 C 1.203125 -5.972656 1.078125 -6.390625 1.078125 -6.890625 C 1.078125 -7.617188 1.332031 -8.207031 1.84375 -8.65625 C 2.351562 -9.101562 3.019531 -9.34375 3.84375 -9.375 C 4.84375 -9.375 5.773438 -9.125 6.640625 -8.625 Z M 6.15625 -7.65625 "/></g></g></g><g fill="#b7ad99" fill-opacity="1"><g transform="translate(12.771874, 64.46771)"><g><path d="M 4.46875 0.203125 L 3.359375 -2.59375 L 2.109375 0.21875 L 0.234375 -4.671875 L 1.109375 -4.671875 L 2.21875 -1.53125 L 3 -3.53125 L 2.546875 -4.671875 L 3.28125 -4.671875 L 4.484375 -1.625 L 5.5 -4.671875 L 6.296875 -4.671875 Z M 4.46875 0.203125 "/></g></g></g><g fill="#b7ad99" fill-opacity="1"><g transform="translate(21.887179, 64.46771)"><g><path d="M 3.765625 -4.703125 L 3.765625 -3.96875 L 1.40625 -3.96875 L 1.40625 -2.71875 L 3.5 -2.71875 L 3.5 -2 L 1.40625 -2 L 1.40625 -0.71875 L 3.859375 -0.71875 L 3.859375 0 L 0.640625 0 L 0.640625 -4.703125 Z M 3.765625 -4.703125 "/></g></g></g><g fill="#b7ad99" fill-opacity="1"><g transform="translate(28.707799, 64.46771)"><g><path d="M 2.875 -2.453125 C 3.132812 -2.347656 3.335938 -2.195312 3.484375 -2 C 3.628906 -1.8125 3.703125 -1.59375 3.703125 -1.34375 C 3.703125 -0.894531 3.546875 -0.554688 3.234375 -0.328125 C 2.929688 -0.109375 2.554688 0 2.109375 0 L 0.640625 0 L 0.640625 -4.703125 L 1.921875 -4.703125 C 2.421875 -4.703125 2.804688 -4.597656 3.078125 -4.390625 C 3.347656 -4.191406 3.484375 -3.898438 3.484375 -3.515625 C 3.484375 -3.273438 3.425781 -3.0625 3.3125 -2.875 C 3.207031 -2.695312 3.0625 -2.554688 2.875 -2.453125 Z M 1.40625 -2.703125 L 2.046875 -2.703125 C 2.265625 -2.703125 2.425781 -2.765625 2.53125 -2.890625 C 2.644531 -3.015625 2.703125 -3.171875 2.703125 -3.359375 C 2.703125 -3.566406 2.632812 -3.71875 2.5 -3.8125 C 2.375 -3.914062 2.195312 -3.96875 1.96875 -3.96875 L 1.40625 -3.96875 Z M 2.078125 -0.703125 C 2.328125 -0.703125 2.53125 -0.753906 2.6875 -0.859375 C 2.851562 -0.972656 2.9375 -1.132812 2.9375 -1.34375 C 2.9375 -1.5625 2.847656 -1.71875 2.671875 -1.8125 C 2.492188 -1.914062 2.28125 -1.96875 2.03125 -1.96875 L 1.40625 -1.96875 L 1.40625 -0.703125 Z M 2.078125 -0.703125 "/></g></g></g><g fill="#b7ad99" fill-opacity="1"><g transform="translate(35.347938, 64.46771)"><g/></g></g><g fill="#b7ad99" fill-opacity="1"><g transform="translate(39.989895, 64.46771)"><g><path d="M 3.109375 -3.75 C 2.703125 -3.957031 2.34375 -4.0625 2.03125 -4.0625 C 1.800781 -4.0625 1.617188 -4.007812 1.484375 -3.90625 C 1.347656 -3.800781 1.28125 -3.660156 1.28125 -3.484375 C 1.28125 -3.304688 1.363281 -3.15625 1.53125 -3.03125 C 1.695312 -2.914062 1.9375 -2.800781 2.25 -2.6875 C 2.476562 -2.601562 2.675781 -2.507812 2.84375 -2.40625 C 3.007812 -2.300781 3.144531 -2.15625 3.25 -1.96875 C 3.351562 -1.789062 3.40625 -1.566406 3.40625 -1.296875 C 3.40625 -1.046875 3.34375 -0.816406 3.21875 -0.609375 C 3.101562 -0.410156 2.925781 -0.25 2.6875 -0.125 C 2.445312 -0.0078125 2.164062 0.046875 1.84375 0.046875 C 1.5625 0.046875 1.28125 0.00390625 1 -0.078125 C 0.726562 -0.171875 0.484375 -0.289062 0.265625 -0.4375 L 0.609375 -1.03125 C 0.765625 -0.914062 0.953125 -0.816406 1.171875 -0.734375 C 1.390625 -0.648438 1.59375 -0.609375 1.78125 -0.609375 C 2 -0.609375 2.195312 -0.660156 2.375 -0.765625 C 2.550781 -0.878906 2.640625 -1.050781 2.640625 -1.28125 C 2.640625 -1.46875 2.566406 -1.617188 2.421875 -1.734375 C 2.273438 -1.859375 2.070312 -1.96875 1.8125 -2.0625 C 1.539062 -2.164062 1.316406 -2.265625 1.140625 -2.359375 C 0.972656 -2.453125 0.820312 -2.585938 0.6875 -2.765625 C 0.5625 -2.941406 0.5 -3.160156 0.5 -3.421875 C 0.5 -3.804688 0.628906 -4.113281 0.890625 -4.34375 C 1.148438 -4.582031 1.492188 -4.707031 1.921875 -4.71875 C 2.234375 -4.71875 2.503906 -4.679688 2.734375 -4.609375 C 2.972656 -4.546875 3.191406 -4.445312 3.390625 -4.3125 Z M 3.109375 -3.75 "/></g></g></g><g fill="#b7ad99" fill-opacity="1"><g transform="translate(46.320637, 64.46771)"><g><path d="M 0.359375 -2.34375 C 0.359375 -2.769531 0.460938 -3.164062 0.671875 -3.53125 C 0.890625 -3.90625 1.179688 -4.203125 1.546875 -4.421875 C 1.921875 -4.640625 2.320312 -4.75 2.75 -4.75 C 3.1875 -4.75 3.585938 -4.640625 3.953125 -4.421875 C 4.316406 -4.203125 4.609375 -3.90625 4.828125 -3.53125 C 5.046875 -3.164062 5.15625 -2.769531 5.15625 -2.34375 C 5.15625 -1.90625 5.046875 -1.503906 4.828125 -1.140625 C 4.617188 -0.773438 4.328125 -0.484375 3.953125 -0.265625 C 3.585938 -0.0546875 3.1875 0.046875 2.75 0.046875 C 2.320312 0.046875 1.921875 -0.0546875 1.546875 -0.265625 C 1.179688 -0.484375 0.890625 -0.773438 0.671875 -1.140625 C 0.460938 -1.503906 0.359375 -1.90625 0.359375 -2.34375 Z M 1.125 -2.34375 C 1.125 -2.039062 1.195312 -1.757812 1.34375 -1.5 C 1.488281 -1.25 1.6875 -1.046875 1.9375 -0.890625 C 2.195312 -0.742188 2.476562 -0.671875 2.78125 -0.671875 C 3.070312 -0.671875 3.335938 -0.742188 3.578125 -0.890625 C 3.828125 -1.035156 4.023438 -1.238281 4.171875 -1.5 C 4.316406 -1.757812 4.390625 -2.039062 4.390625 -2.34375 C 4.390625 -2.644531 4.316406 -2.925781 4.171875 -3.1875 C 4.023438 -3.445312 3.828125 -3.648438 3.578125 -3.796875 C 3.328125 -3.953125 3.050781 -4.03125 2.75 -4.03125 C 2.445312 -4.03125 2.171875 -3.953125 1.921875 -3.796875 C 1.679688 -3.648438 1.488281 -3.445312 1.34375 -3.1875 C 1.195312 -2.925781 1.125 -2.644531 1.125 -2.34375 Z M 1.125 -2.34375 "/></g></g></g><g fill="#b7ad99" fill-opacity="1"><g transform="translate(54.411071, 64.46771)"><g><path d="M 1.40625 -4.703125 L 1.40625 -0.71875 L 3.71875 -0.71875 L 3.71875 0 L 0.640625 0 L 0.640625 -4.703125 Z M 1.40625 -4.703125 "/></g></g></g><g fill="#b7ad99" fill-opacity="1"><g transform="translate(61.051208, 64.46771)"><g><path d="M 1.328125 -1.6875 C 1.328125 -1.507812 1.375 -1.34375 1.46875 -1.1875 C 1.5625 -1.03125 1.6875 -0.90625 1.84375 -0.8125 C 2.007812 -0.71875 2.191406 -0.671875 2.390625 -0.671875 C 2.585938 -0.671875 2.769531 -0.71875 2.9375 -0.8125 C 3.101562 -0.90625 3.234375 -1.023438 3.328125 -1.171875 C 3.421875 -1.328125 3.46875 -1.5 3.46875 -1.6875 L 3.46875 -4.703125 L 4.21875 -4.703125 L 4.21875 -1.671875 C 4.21875 -1.335938 4.132812 -1.039062 3.96875 -0.78125 C 3.8125 -0.519531 3.59375 -0.316406 3.3125 -0.171875 C 3.03125 -0.0234375 2.722656 0.046875 2.390625 0.046875 C 2.054688 0.046875 1.75 -0.0234375 1.46875 -0.171875 C 1.1875 -0.316406 0.96875 -0.519531 0.8125 -0.78125 C 0.65625 -1.039062 0.578125 -1.335938 0.578125 -1.671875 L 0.578125 -4.703125 L 1.328125 -4.703125 Z M 1.328125 -1.6875 "/></g></g></g><g fill="#b7ad99" fill-opacity="1"><g transform="translate(68.406823, 64.46771)"><g><path d="M 3.453125 -4.703125 L 3.453125 -3.96875 L 2.234375 -3.96875 L 2.234375 0 L 1.484375 0 L 1.484375 -3.96875 L 0.3125 -3.96875 L 0.3125 -4.703125 Z M 3.453125 -4.703125 "/></g></g></g><g fill="#b7ad99" fill-opacity="1"><g transform="translate(74.744011, 64.46771)"><g><path d="M 1.40625 -4.703125 L 1.40625 0 L 0.640625 0 L 0.640625 -4.703125 Z M 1.40625 -4.703125 "/></g></g></g><g fill="#b7ad99" fill-opacity="1"><g transform="translate(79.366628, 64.46771)"><g><path d="M 0.359375 -2.34375 C 0.359375 -2.769531 0.460938 -3.164062 0.671875 -3.53125 C 0.890625 -3.90625 1.179688 -4.203125 1.546875 -4.421875 C 1.921875 -4.640625 2.320312 -4.75 2.75 -4.75 C 3.1875 -4.75 3.585938 -4.640625 3.953125 -4.421875 C 4.316406 -4.203125 4.609375 -3.90625 4.828125 -3.53125 C 5.046875 -3.164062 5.15625 -2.769531 5.15625 -2.34375 C 5.15625 -1.90625 5.046875 -1.503906 4.828125 -1.140625 C 4.617188 -0.773438 4.328125 -0.484375 3.953125 -0.265625 C 3.585938 -0.0546875 3.1875 0.046875 2.75 0.046875 C 2.320312 0.046875 1.921875 -0.0546875 1.546875 -0.265625 C 1.179688 -0.484375 0.890625 -0.773438 0.671875 -1.140625 C 0.460938 -1.503906 0.359375 -1.90625 0.359375 -2.34375 Z M 1.125 -2.34375 C 1.125 -2.039062 1.195312 -1.757812 1.34375 -1.5 C 1.488281 -1.25 1.6875 -1.046875 1.9375 -0.890625 C 2.195312 -0.742188 2.476562 -0.671875 2.78125 -0.671875 C 3.070312 -0.671875 3.335938 -0.742188 3.578125 -0.890625 C 3.828125 -1.035156 4.023438 -1.238281 4.171875 -1.5 C 4.316406 -1.757812 4.390625 -2.039062 4.390625 -2.34375 C 4.390625 -2.644531 4.316406 -2.925781 4.171875 -3.1875 C 4.023438 -3.445312 3.828125 -3.648438 3.578125 -3.796875 C 3.328125 -3.953125 3.050781 -4.03125 2.75 -4.03125 C 2.445312 -4.03125 2.171875 -3.953125 1.921875 -3.796875 C 1.679688 -3.648438 1.488281 -3.445312 1.34375 -3.1875 C 1.195312 -2.925781 1.125 -2.644531 1.125 -2.34375 Z M 1.125 -2.34375 "/></g></g></g><g fill="#b7ad99" fill-opacity="1"><g transform="translate(87.457063, 64.46771)"><g><path d="M 4.796875 -4.703125 L 4.796875 0.171875 L 4.78125 0.171875 L 1.390625 -3.109375 L 1.40625 0 L 0.640625 0 L 0.640625 -4.859375 L 0.6875 -4.859375 L 4.0625 -1.53125 L 4.046875 -4.703125 Z M 4.796875 -4.703125 "/></g></g></g><g fill="#b7ad99" fill-opacity="1"><g transform="translate(95.476587, 64.46771)"><g><path d="M 3.109375 -3.75 C 2.703125 -3.957031 2.34375 -4.0625 2.03125 -4.0625 C 1.800781 -4.0625 1.617188 -4.007812 1.484375 -3.90625 C 1.347656 -3.800781 1.28125 -3.660156 1.28125 -3.484375 C 1.28125 -3.304688 1.363281 -3.15625 1.53125 -3.03125 C 1.695312 -2.914062 1.9375 -2.800781 2.25 -2.6875 C 2.476562 -2.601562 2.675781 -2.507812 2.84375 -2.40625 C 3.007812 -2.300781 3.144531 -2.15625 3.25 -1.96875 C 3.351562 -1.789062 3.40625 -1.566406 3.40625 -1.296875 C 3.40625 -1.046875 3.34375 -0.816406 3.21875 -0.609375 C 3.101562 -0.410156 2.925781 -0.25 2.6875 -0.125 C 2.445312 -0.0078125 2.164062 0.046875 1.84375 0.046875 C 1.5625 0.046875 1.28125 0.00390625 1 -0.078125 C 0.726562 -0.171875 0.484375 -0.289062 0.265625 -0.4375 L 0.609375 -1.03125 C 0.765625 -0.914062 0.953125 -0.816406 1.171875 -0.734375 C 1.390625 -0.648438 1.59375 -0.609375 1.78125 -0.609375 C 2 -0.609375 2.195312 -0.660156 2.375 -0.765625 C 2.550781 -0.878906 2.640625 -1.050781 2.640625 -1.28125 C 2.640625 -1.46875 2.566406 -1.617188 2.421875 -1.734375 C 2.273438 -1.859375 2.070312 -1.96875 1.8125 -2.0625 C 1.539062 -2.164062 1.316406 -2.265625 1.140625 -2.359375 C 0.972656 -2.453125 0.820312 -2.585938 0.6875 -2.765625 C 0.5625 -2.941406 0.5 -3.160156 0.5 -3.421875 C 0.5 -3.804688 0.628906 -4.113281 0.890625 -4.34375 C 1.148438 -4.582031 1.492188 -4.707031 1.921875 -4.71875 C 2.234375 -4.71875 2.503906 -4.679688 2.734375 -4.609375 C 2.972656 -4.546875 3.191406 -4.445312 3.390625 -4.3125 Z M 3.109375 -3.75 "/></g></g></g><g fill="#ffffff" fill-opacity="1"><g transform="translate(36.505208, 73.000737)"><g><path d="M 3 -3.75 L 3 -3.171875 L 1.125 -3.171875 L 1.125 -2.171875 L 2.796875 -2.171875 L 2.796875 -1.59375 L 1.125 -1.59375 L 1.125 -0.578125 L 3.078125 -0.578125 L 3.078125 0 L 0.515625 0 L 0.515625 -3.75 Z M 3 -3.75 "/></g></g></g><g fill="#ffffff" fill-opacity="1"><g transform="translate(41.962222, 73.000737)"><g><path d="M 2.484375 -2.984375 C 2.160156 -3.160156 1.875 -3.25 1.625 -3.25 C 1.4375 -3.25 1.285156 -3.207031 1.171875 -3.125 C 1.066406 -3.039062 1.015625 -2.925781 1.015625 -2.78125 C 1.015625 -2.632812 1.082031 -2.515625 1.21875 -2.421875 C 1.351562 -2.328125 1.546875 -2.234375 1.796875 -2.140625 C 1.984375 -2.078125 2.140625 -2.003906 2.265625 -1.921875 C 2.398438 -1.835938 2.507812 -1.722656 2.59375 -1.578125 C 2.6875 -1.429688 2.734375 -1.25 2.734375 -1.03125 C 2.734375 -0.832031 2.679688 -0.648438 2.578125 -0.484375 C 2.472656 -0.328125 2.328125 -0.195312 2.140625 -0.09375 C 1.953125 0 1.726562 0.046875 1.46875 0.046875 C 1.25 0.046875 1.023438 0.0078125 0.796875 -0.0625 C 0.578125 -0.132812 0.382812 -0.234375 0.21875 -0.359375 L 0.484375 -0.828125 C 0.609375 -0.734375 0.757812 -0.648438 0.9375 -0.578125 C 1.113281 -0.515625 1.273438 -0.484375 1.421875 -0.484375 C 1.597656 -0.484375 1.753906 -0.523438 1.890625 -0.609375 C 2.035156 -0.703125 2.109375 -0.84375 2.109375 -1.03125 C 2.109375 -1.175781 2.050781 -1.296875 1.9375 -1.390625 C 1.820312 -1.484375 1.660156 -1.570312 1.453125 -1.65625 C 1.234375 -1.726562 1.050781 -1.800781 0.90625 -1.875 C 0.769531 -1.957031 0.648438 -2.066406 0.546875 -2.203125 C 0.453125 -2.347656 0.40625 -2.523438 0.40625 -2.734375 C 0.40625 -3.035156 0.507812 -3.28125 0.71875 -3.46875 C 0.925781 -3.65625 1.195312 -3.757812 1.53125 -3.78125 C 1.78125 -3.78125 2 -3.75 2.1875 -3.6875 C 2.375 -3.632812 2.550781 -3.554688 2.71875 -3.453125 Z M 2.484375 -2.984375 "/></g></g></g><g fill="#ffffff" fill-opacity="1"><g transform="translate(47.027274, 73.000737)"><g><path d="M 2.765625 -3.75 L 2.765625 -3.171875 L 1.796875 -3.171875 L 1.796875 0 L 1.1875 0 L 1.1875 -3.171875 L 0.25 -3.171875 L 0.25 -3.75 Z M 2.765625 -3.75 "/></g></g></g><g fill="#ffffff" fill-opacity="1"><g transform="translate(55.811295, 73.000737)"><g><path d="M 2.65625 -0.578125 L 2.65625 0 L 0.28125 0 L 0.46875 -0.1875 C 0.800781 -0.53125 1.066406 -0.804688 1.265625 -1.015625 C 1.460938 -1.234375 1.625 -1.453125 1.75 -1.671875 C 1.875 -1.890625 1.9375 -2.097656 1.9375 -2.296875 C 1.9375 -2.472656 1.878906 -2.609375 1.765625 -2.703125 C 1.660156 -2.804688 1.519531 -2.859375 1.34375 -2.859375 C 1.164062 -2.859375 1.023438 -2.804688 0.921875 -2.703125 C 0.828125 -2.609375 0.78125 -2.492188 0.78125 -2.359375 C 0.78125 -2.148438 0.847656 -1.972656 0.984375 -1.828125 L 0.609375 -1.5 C 0.484375 -1.570312 0.382812 -1.695312 0.3125 -1.875 C 0.238281 -2.050781 0.203125 -2.207031 0.203125 -2.34375 C 0.203125 -2.539062 0.25 -2.722656 0.34375 -2.890625 C 0.445312 -3.054688 0.59375 -3.1875 0.78125 -3.28125 C 0.96875 -3.382812 1.191406 -3.4375 1.453125 -3.4375 C 1.671875 -3.4375 1.863281 -3.382812 2.03125 -3.28125 C 2.207031 -3.1875 2.335938 -3.054688 2.421875 -2.890625 C 2.515625 -2.722656 2.5625 -2.539062 2.5625 -2.34375 C 2.5625 -2.144531 2.515625 -1.945312 2.421875 -1.75 C 2.335938 -1.5625 2.234375 -1.382812 2.109375 -1.21875 C 1.984375 -1.050781 1.804688 -0.835938 1.578125 -0.578125 Z M 2.65625 -0.578125 "/></g></g></g><g fill="#ffffff" fill-opacity="1"><g transform="translate(60.762884, 73.000737)"><g><path d="M 1.609375 0.015625 C 1.335938 0.015625 1.09375 -0.0507812 0.875 -0.1875 C 0.65625 -0.320312 0.484375 -0.519531 0.359375 -0.78125 C 0.242188 -1.039062 0.1875 -1.351562 0.1875 -1.71875 C 0.1875 -2.300781 0.3125 -2.734375 0.5625 -3.015625 C 0.820312 -3.296875 1.171875 -3.4375 1.609375 -3.4375 C 1.890625 -3.4375 2.132812 -3.367188 2.34375 -3.234375 C 2.5625 -3.097656 2.734375 -2.898438 2.859375 -2.640625 C 2.984375 -2.390625 3.046875 -2.082031 3.046875 -1.71875 C 3.046875 -1.34375 2.984375 -1.023438 2.859375 -0.765625 C 2.734375 -0.503906 2.5625 -0.304688 2.34375 -0.171875 C 2.132812 -0.046875 1.890625 0.015625 1.609375 0.015625 Z M 1.609375 -0.5625 C 1.878906 -0.5625 2.082031 -0.664062 2.21875 -0.875 C 2.351562 -1.09375 2.421875 -1.378906 2.421875 -1.734375 C 2.421875 -2.078125 2.351562 -2.347656 2.21875 -2.546875 C 2.082031 -2.753906 1.878906 -2.859375 1.609375 -2.859375 C 1.335938 -2.859375 1.132812 -2.753906 1 -2.546875 C 0.863281 -2.347656 0.796875 -2.070312 0.796875 -1.71875 C 0.796875 -1.363281 0.863281 -1.082031 1 -0.875 C 1.132812 -0.664062 1.335938 -0.5625 1.609375 -0.5625 Z M 1.609375 -0.5625 "/></g></g></g><g fill="#ffffff" fill-opacity="1"><g transform="translate(66.049704, 73.000737)"><g><path d="M 2.65625 -0.578125 L 2.65625 0 L 0.28125 0 L 0.46875 -0.1875 C 0.800781 -0.53125 1.066406 -0.804688 1.265625 -1.015625 C 1.460938 -1.234375 1.625 -1.453125 1.75 -1.671875 C 1.875 -1.890625 1.9375 -2.097656 1.9375 -2.296875 C 1.9375 -2.472656 1.878906 -2.609375 1.765625 -2.703125 C 1.660156 -2.804688 1.519531 -2.859375 1.34375 -2.859375 C 1.164062 -2.859375 1.023438 -2.804688 0.921875 -2.703125 C 0.828125 -2.609375 0.78125 -2.492188 0.78125 -2.359375 C 0.78125 -2.148438 0.847656 -1.972656 0.984375 -1.828125 L 0.609375 -1.5 C 0.484375 -1.570312 0.382812 -1.695312 0.3125 -1.875 C 0.238281 -2.050781 0.203125 -2.207031 0.203125 -2.34375 C 0.203125 -2.539062 0.25 -2.722656 0.34375 -2.890625 C 0.445312 -3.054688 0.59375 -3.1875 0.78125 -3.28125 C 0.96875 -3.382812 1.191406 -3.4375 1.453125 -3.4375 C 1.671875 -3.4375 1.863281 -3.382812 2.03125 -3.28125 C 2.207031 -3.1875 2.335938 -3.054688 2.421875 -2.890625 C 2.515625 -2.722656 2.5625 -2.539062 2.5625 -2.34375 C 2.5625 -2.144531 2.515625 -1.945312 2.421875 -1.75 C 2.335938 -1.5625 2.234375 -1.382812 2.109375 -1.21875 C 1.984375 -1.050781 1.804688 -0.835938 1.578125 -0.578125 Z M 2.65625 -0.578125 "/></g></g></g><g fill="#ffffff" fill-opacity="1"><g transform="translate(71.001293, 73.000737)"><g><path d="M 2.609375 -1.25 L 2.609375 -0.78125 L 2.1875 -0.78125 L 2.1875 0 L 1.578125 0 L 1.578125 -0.78125 L 0.0625 -0.78125 L 0.0625 -0.796875 L 2.171875 -3.4375 L 2.1875 -3.4375 L 2.1875 -1.25 Z M 1.578125 -1.25 L 1.578125 -2.0625 L 0.953125 -1.25 Z M 1.578125 -1.25 "/></g></g></g></svg>